<?xml version="1.0" encoding="UTF-8"?>
<svg xmlns="http://www.w3.org/2000/svg" width="600" height="600" version="1.1" viewBox="0 0 600 600">
  <defs>
    <style>
      .cls-1 {
        fill: #051377;
      }

      .cls-2 {
        fill-rule: evenodd;
      }

      .cls-3 {
        fill: #fff;
      }

      .cls-4 {
        stroke: #000;
        stroke-linejoin: round;
        stroke-width: 16px;
      }
    </style>
  </defs>
  <!-- Generator: Adobe Illustrator 28.6.0, SVG Export Plug-In . SVG Version: 1.2.0 Build 709)  -->
  <g>
    <g id="Layer_1">
      <g id="Layer_1-2" data-name="Layer_1">
        <g id="Layer_1-2">
          <path class="cls-1" d="M50-.4h500c27.6,0,50,22.4,50,50v500c0,27.6-22.4,50-50,50H50c-27.6,0-50-22.4-50-50V49.6C0,22,22.4-.4,50-.4Z"/>
          <polygon class="cls-4" points="156 149.3 506.6 149.3 476.7 491 126.1 491 156 149.3"/>
          <g>
            <polygon class="cls-3" points="123.3 108.2 474.7 108.2 444 459.7 92.5 459.7 123.3 108.2"/>
            <path d="M444,467.7H92.5c-2.2,0-4.4-.9-5.9-2.6s-2.3-3.9-2.1-6.1l30.8-351.5c.4-4.1,3.8-7.3,8-7.3h351.4c2.2,0,4.4.9,5.9,2.6s2.3,3.9,2.1,6.1l-30.7,351.5c-.4,4.1-3.9,7.3-8,7.3h0ZM101.2,451.7h335.4l29.4-335.5H130.6s-29.4,335.5-29.4,335.5Z"/>
          </g>
        </g>
        <path class="cls-2" d="M368.3,257.5c0,32.2-26.1,58.2-58.2,58.2h-37.1v21.2h-21.2v21.2l-10.6,10.6h-42.4v-42.4l54.7-54.7c-1.1-4.5-1.7-9.3-1.7-14.2,0-32.2,26.1-58.2,58.2-58.2s58.2,26.1,58.2,58.2h.1ZM336.5,241.6c0,5.8-4.7,10.6-10.6,10.6s-10.6-4.7-10.6-10.6,4.7-10.6,10.6-10.6,10.6,4.7,10.6,10.6Z"/>
      </g>
    </g>
  </g>
</svg>